
Episode Title : Terror-Steam Up

Screens: 
http://imageshack.us/a/img201/5192/76798899.jpg 
http://imageshack.us/a/img834/761/46661027.jpg 
http://imageshack.us/a/img543/2718/11080772.jpg


Media Info:

Format : Matroska 
Format version : Version 4 / Version 2 
File size : 54.3 MiB 
Duration : 23mn 9s 
Overall bit rate mode : Variable 
Overall bit rate : 328 Kbps 
Encoded date : UTC 2013-02-28 17:46:21 
Writing application : mkvmerge v6.0.0 ('Coming Up For Air') built on Jan 20 2013 

09:52:00 
Writing library : libebml v1.3.0 + libmatroska v1.4.0 

Video 
ID : 1 
Format : AVC 
Format/Info : Advanced Video Codec 
Format profile : High 10@L5.1 
Format settings, CABAC : Yes 
Format settings, ReFrames : 4 frames 
Codec ID : V_MPEG4/ISO/AVC 
Duration : 23mn 9s 
Bit rate : 280 Kbps 
Width : 848 pixels 
Height : 480 pixels 
Display aspect ratio : 16:9 
Frame rate mode : Constant 
Frame rate : 23.976 fps 
Color space : YUV 
Chroma subsampling : 4:2:0 
Bit depth : 10 bits 
Scan type : Progressive 
Bits/(Pixel*Frame) : 0.029 
Stream size : 45.3 MiB (83%) 
Writing library : x264 core
Default : Yes 
Forced : No 

Audio 
ID : 2 
Format : Vorbis 
Format settings, Floor : 1 
Codec ID : A_VORBIS 
Duration : 23mn 9s 
Bit rate mode : Variable 
Bit rate : 48.0 Kbps 
Channel(s) : 1 channel 
Sampling rate : 32.0 KHz 
Compression mode : Lossy 
Stream size : 7.95 MiB (15%) 
Writing library : Lavf52.94.0 
Language : Japanese 
Default : Yes 
Forced : No 
Writing application : Lavf52.94.0 

Text 
ID : 3 
Format : ASS 
Codec ID : S_TEXT/ASS 
Codec ID/Info : Advanced Sub Station Alpha 
Compression mode : Lossless 
Language : English 
Default : Yes 
Forced : No 

